#N canvas 229 365 1199 626 12;
#X obj 130 68 tgl 20 0 empty empty empty 0 -10 0 12 #fcfcfc #000000 #000000 0 1;
#X obj 130 93 metro 1000;
#X obj 130 118 random 36;
#X obj 130 143 + 48;
#X obj 130 168 makenote 100 900;
#X obj 130 193 noteout 1;
#X floatatom 216 48 5 0 0 0 - - - 0;
#X obj 359 123 bng 20 250 50 0 empty empty empty 0 -10 0 12 #fcfcfc #000000 #000000;
#X msg 415 123 stop;
#X obj 359 243 midiout 1;
#X obj 601 125 bng 20 250 50 0 empty empty empty 0 -10 0 12 #fcfcfc #000000 #000000;
#X msg 657 125 stop;
#X obj 601 245 midiout 1;
#X obj 601 190 cyclone/seq valse1.mid;
#X obj 783 129 bng 20 250 50 0 empty empty empty 0 -10 0 12 #fcfcfc #000000 #000000;
#X msg 839 129 stop;
#X obj 783 249 midiout 1;
#X obj 783 194 cyclone/seq ondineravel.mid;
#X obj 433 353 bng 20 250 50 0 empty empty empty 0 -10 0 12 #fcfcfc #000000 #000000;
#X msg 489 353 stop;
#X obj 433 473 midiout 1;
#X obj 433 418 cyclone/seq chopinBallade.mid;
#X obj 666 353 bng 20 250 50 0 empty empty empty 0 -10 0 12 #fcfcfc #000000 #000000;
#X msg 722 353 stop;
#X obj 666 473 midiout 1;
#X obj 666 418 cyclone/seq gymnopedie1.mid;
#X obj 359 188 cyclone/seq gnossienne_1.mid;
#X connect 0 0 1 0;
#X connect 1 0 2 0;
#X connect 2 0 3 0;
#X connect 3 0 4 0;
#X connect 4 0 5 0;
#X connect 4 1 5 1;
#X connect 6 0 1 1;
#X connect 7 0 26 0;
#X connect 8 0 26 0;
#X connect 10 0 13 0;
#X connect 11 0 13 0;
#X connect 13 0 12 0;
#X connect 14 0 17 0;
#X connect 15 0 17 0;
#X connect 17 0 16 0;
#X connect 18 0 21 0;
#X connect 19 0 21 0;
#X connect 21 0 20 0;
#X connect 22 0 25 0;
#X connect 23 0 25 0;
#X connect 25 0 24 0;
#X connect 26 0 9 0;
